<svg id="svg" fill="#000000" stroke="#000000" width="140" height="140" version="1.1" viewBox="144 144 512 512" xmlns="http://www.w3.org/2000/svg">
    <g id="IconSvg_bgCarrier" stroke-width="0"></g>
    <g id="IconSvg_tracerCarrier" stroke-linecap="round" stroke-linejoin="round" stroke="#CCCCCC" stroke-width="0">
      <g xmlns="http://www.w3.org/2000/svg" fill-rule="evenodd">
  <path d="m295.04 426.24c-78.258 0-141.7 63.441-141.7 141.7v41.984c0 20.289 16.449 36.738 36.738 36.738h419.84c20.289 0 36.738-16.449 36.738-36.738v-41.984c0-78.254-63.441-141.7-141.7-141.7z"></path>
  <path d="m389.5 153.34c-72.461 0-131.2 58.742-131.2 131.2 0 72.461 58.742 131.2 131.2 131.2 72.457 0 131.2-58.738 131.2-131.2 0-72.461-58.742-131.2-131.2-131.2z"></path>
 </g>

      </g>
     <g id="IconSvg_iconCarrier">
      <g xmlns="http://www.w3.org/2000/svg" fill-rule="evenodd">
  <path d="m295.04 426.24c-78.258 0-141.7 63.441-141.7 141.7v41.984c0 20.289 16.449 36.738 36.738 36.738h419.84c20.289 0 36.738-16.449 36.738-36.738v-41.984c0-78.254-63.441-141.7-141.7-141.7z"></path>
  <path d="m389.5 153.34c-72.461 0-131.2 58.742-131.2 131.2 0 72.461 58.742 131.2 131.2 131.2 72.457 0 131.2-58.738 131.2-131.2 0-72.461-58.742-131.2-131.2-131.2z"></path>
 </g>

      </g>
      </svg>