<svg id="svg" fill="#ff0000" stroke="#ff0000" width="200" height="200" version="1.1" viewBox="144 144 512 512" xmlns="http://www.w3.org/2000/svg">
    <g id="IconSvg_bgCarrier" stroke-width="0"></g>
    <g id="IconSvg_tracerCarrier" stroke-linecap="round" stroke-linejoin="round" stroke="#CCCCCC" stroke-width="0">
      <path xmlns="http://www.w3.org/2000/svg" d="m529.48 358.69c-3.5273-28.215-16.121-54.914-36.273-75.57-28.719-29.223-67.008-42.824-107.31-38.289-58.945 6.5469-106.8 53.906-113.86 112.35-6.0469 51.387 17.129 99.754 60.961 126.46 7.0547 4.5352 13.098 10.578 18.641 18.137l44.336 62.473c2.0156 3.0234 6.0469 3.0234 8.0625 0l45.848-62.473c5.0391-7.5586 11.586-13.602 19.145-18.137 42.316-26.703 65.996-74.062 60.453-124.95zm-128.97 88.164c-38.793 0-70.535-31.738-70.535-70.535 0-38.793 31.738-70.535 70.535-70.535 38.793 0 70.535 31.738 70.535 70.535-0.003906 38.797-31.742 70.535-70.535 70.535z"></path>

      </g>
     <g id="IconSvg_iconCarrier">
      <path xmlns="http://www.w3.org/2000/svg" d="m529.48 358.69c-3.5273-28.215-16.121-54.914-36.273-75.57-28.719-29.223-67.008-42.824-107.31-38.289-58.945 6.5469-106.8 53.906-113.86 112.35-6.0469 51.387 17.129 99.754 60.961 126.46 7.0547 4.5352 13.098 10.578 18.641 18.137l44.336 62.473c2.0156 3.0234 6.0469 3.0234 8.0625 0l45.848-62.473c5.0391-7.5586 11.586-13.602 19.145-18.137 42.316-26.703 65.996-74.062 60.453-124.95zm-128.97 88.164c-38.793 0-70.535-31.738-70.535-70.535 0-38.793 31.738-70.535 70.535-70.535 38.793 0 70.535 31.738 70.535 70.535-0.003906 38.797-31.742 70.535-70.535 70.535z"></path>

      </g>
      </svg>