<svg id="svg" fill="#000000" stroke="#000000" width="200px" height="200px" version="1.1" viewBox="144 144 512 512" xmlns="http://www.w3.org/2000/svg">
    <g id="IconSvg_bgCarrier" stroke-width="0"></g>
    <g id="IconSvg_tracerCarrier" stroke-linecap="round" stroke-linejoin="round" stroke="#CCCCCC"></g>
     <g id="IconSvg_iconCarrier">
      <g xmlns="http://www.w3.org/2000/svg">
  <path d="m516.82 279.99c5.5664 0 10.078-4.5117 10.078-10.078 0-5.5625-4.5117-10.074-10.078-10.074-9.1328 0-19.301-13.637-19.301-33.199 0-19.566 10.172-33.199 19.301-33.199 5.4922 0 11.348 4.9648 15.152 13.164h21.488c-5.7461-19.703-19.793-33.316-36.641-33.316-22.125 0-39.453 23.434-39.453 53.352 0 29.914 17.328 53.352 39.453 53.352z"></path>
  <path d="m320.34 279.99c5.5664 0 10.078-4.5117 10.078-10.078 0-5.5625-4.5117-10.074-10.078-10.074-9.1328 0-19.301-13.637-19.301-33.199s10.168-33.199 19.301-33.199c5.4922 0 11.348 4.9648 15.152 13.164h21.488c-5.7461-19.703-19.793-33.316-36.641-33.316-22.125 0-39.453 23.434-39.453 53.352 0 29.914 17.328 53.352 39.453 53.352z"></path>
  <path d="m284.81 488.44h-39.355c-3.7344 0-6.9609 2.6172-7.7305 6.2695l-5.8594 27.719h-0.003907c-0.28516 1.3594 0.054688 2.7773 0.92969 3.8555s2.1914 1.707 3.5781 1.707h39.391c3.7383 0 6.9648-2.6211 7.7344-6.2773l5.8242-27.715c0.28516-1.3594-0.054687-2.7734-0.92969-3.8516s-2.1914-1.707-3.5781-1.707z"></path>
  <path d="m299.57 418.66h-39.348c-3.7344 0-6.9609 2.6133-7.7305 6.2695l-5.8633 27.719c-0.28906 1.3594 0.054688 2.7773 0.92969 3.8555s2.1914 1.707 3.5781 1.707h39.348c3.7344 0 6.9609-2.6172 7.7344-6.2695l5.8633-27.719h-0.003906c0.28906-1.3594-0.050781-2.7773-0.92578-3.8555-0.875-1.0781-2.1914-1.707-3.582-1.707z"></path>
  <path d="m362.09 488.44h-39.398c-3.7344 0-6.9609 2.6172-7.7305 6.2695l-5.8633 27.719c-0.28906 1.3594 0.054688 2.7773 0.92969 3.8555s2.1914 1.707 3.5781 1.707h39.398c3.7344 0 6.9609-2.6172 7.7344-6.2695l5.8594-27.719c0.28906-1.3594-0.054687-2.7773-0.92969-3.8555s-2.1875-1.707-3.5781-1.707z"></path>
  <path d="m376.85 418.66h-39.398c-3.7344 0-6.9609 2.6133-7.7305 6.2695l-5.8594 27.719h-0.003906c-0.28906 1.3594 0.054687 2.7773 0.92969 3.8555s2.1914 1.707 3.5781 1.707h39.398c3.7344 0 6.9609-2.6172 7.7344-6.2695l5.8594-27.719c0.28906-1.3594-0.054687-2.7773-0.92969-3.8555-0.875-1.0781-2.1914-1.707-3.5781-1.707z"></path>
  <path d="m390.26 382.16 5.8633-27.719c0.28906-1.3594-0.054688-2.7773-0.92969-3.8555s-2.1875-1.707-3.5781-1.707h-39.441c-3.7383 0-6.9648 2.6211-7.7344 6.2773l-5.8242 27.715c-0.28516 1.3594 0.054688 2.7734 0.92969 3.8516 0.875 1.0781 2.1914 1.707 3.5781 1.707h39.406c3.7344 0 6.9609-2.6172 7.7305-6.2695z"></path>
  <path d="m439.33 488.44h-39.355c-3.7344 0-6.9609 2.6172-7.7344 6.2695l-5.8633 27.719h0.003906c-0.28906 1.3594 0.054688 2.7773 0.92969 3.8555s2.1875 1.707 3.5781 1.707h39.391c3.7383 0 6.9648-2.6211 7.7344-6.2773l5.8242-27.715c0.28516-1.3594-0.054688-2.7734-0.92969-3.8516s-2.1914-1.707-3.5781-1.707z"></path>
  <path d="m454.09 418.66h-39.348c-3.7344 0-6.9609 2.6133-7.7344 6.2695l-5.8633 27.719h0.003906c-0.28906 1.3594 0.054688 2.7773 0.92969 3.8555s2.1875 1.707 3.5781 1.707h39.348c3.7344 0 6.9609-2.6172 7.7305-6.2695l5.8633-27.719c0.28906-1.3594-0.054688-2.7773-0.92969-3.8555-0.875-1.0781-2.1914-1.707-3.5781-1.707z"></path>
  <path d="m467.49 382.16 5.8594-27.719h0.003907c0.28906-1.3594-0.054688-2.7773-0.92969-3.8555s-2.1914-1.707-3.5781-1.707h-39.391c-3.7383 0-6.9648 2.6211-7.7344 6.2773l-5.8242 27.715c-0.28516 1.3594 0.054687 2.7734 0.92969 3.8516 0.875 1.0781 2.1914 1.707 3.5781 1.707h39.355c3.7344 0 6.9609-2.6172 7.7305-6.2695z"></path>
  <path d="m516.56 488.44h-39.352c-3.7344 0-6.9609 2.6172-7.7344 6.2695l-5.8594 27.719c-0.28906 1.3594 0.054687 2.7773 0.92969 3.8555s2.1875 1.707 3.5781 1.707h39.391c3.7383 0 6.9648-2.6211 7.7344-6.2773l5.8242-27.715c0.28516-1.3594-0.058594-2.7734-0.93359-3.8516s-2.1875-1.707-3.5781-1.707z"></path>
  <path d="m482.89 458.21h39.348c3.7344 0 6.957-2.6172 7.7305-6.2695l5.8633-27.719c0.28906-1.3594-0.054687-2.7773-0.92969-3.8555-0.875-1.0781-2.1914-1.707-3.5781-1.707h-39.348c-3.7344 0-6.9609 2.6133-7.7344 6.2695l-5.8633 27.719h0.003906c-0.28906 1.3594 0.050782 2.7773 0.92578 3.8555s2.1914 1.707 3.582 1.707z"></path>
  <path d="m497.64 388.43h39.355c3.7344 0 6.9609-2.6172 7.7305-6.2695l5.8633-27.719c0.28906-1.3594-0.054688-2.7773-0.92969-3.8555s-2.1914-1.707-3.5781-1.707h-39.391c-3.7383 0-6.9648 2.6211-7.7344 6.2773l-5.8242 27.715c-0.28516 1.3594 0.054688 2.7734 0.92969 3.8516 0.875 1.0781 2.1914 1.707 3.5781 1.707z"></path>
  <path d="m235.05 583.88c-0.16016 11.18 4.1211 21.969 11.902 29.996s18.43 12.645 29.609 12.832h308.68c11.176-0.19531 21.816-4.8125 29.59-12.84 7.7734-8.0312 12.047-18.812 11.879-29.988v-318.84c0.16797-11.172-4.1055-21.957-11.879-29.984-7.7734-8.0312-18.414-12.648-29.59-12.844h-71.832c-0.17578 1.4648-0.26953 2.9414-0.27344 4.418-0.4375 6.3398 1.4766 12.617 5.3711 17.637 0.23047 0.015624 0.44141 0.089843 0.67188 0.10937 2.6289-0.55078 5.3398-0.58984 7.9805-0.10937 13.051 2.4219 21.32 16.812 18.477 32.145s-15.73 25.801-28.777 23.379l-0.003906 0.003906c-3.918-0.78125-7.5312-2.6602-10.422-5.4141-25.742-5.9297-44.68-33.539-44.68-67.75 0-1.4922 0.10156-2.9492 0.17188-4.418h-145c-0.17969 1.4648-0.26953 2.9414-0.27344 4.418-0.4375 6.3398 1.4727 12.617 5.3711 17.637 0.23047 0.015624 0.44141 0.089843 0.67187 0.10937 2.6289-0.55078 5.3359-0.58984 7.9805-0.10937 13.051 2.4219 21.32 16.812 18.477 32.145s-15.73 25.801-28.777 23.379l-0.003906 0.003906c-3.918-0.78125-7.5352-2.6562-10.426-5.4141-25.742-5.9297-44.68-33.539-44.68-67.75 0-0.94922 0.082031-1.8711 0.10938-2.8086-10.289 3.0547-19.012 9.9414-24.371 19.242-5.6602 5.6094-9.5938 12.723-11.336 20.496l-55.711 272.23c-4.1289 20.176 11.121 36.59 34 36.59h27.094zm368.62 0h-0.003906c0.074219 4.9688-1.8242 9.7617-5.2773 13.328-3.457 3.5664-8.1836 5.6211-13.152 5.707h-308.68c-4.9727-0.082031-9.707-2.1289-13.172-5.6992-3.4648-3.5664-5.3711-8.3633-5.3008-13.336v-11.5h258.55c22.875 0 44.848-16.414 48.977-36.59l38.051-185.96zm-391.56-31.816c-10.172 0-16.957-7.3008-15.121-16.273l43.176-210.99h345.58l-43.172 210.99c-1.3594 4.7188-4.2227 8.8594-8.1523 11.797-3.9336 2.9414-8.7188 4.5117-13.629 4.4766z"></path>
 </g>

      </g>
      </svg>